The Double Life of Véronique is the story of two young women who are -- in some mysterious and irresolvable way -- the same woman leading two different yet interconnected lives. Those familiar with Polish director Krzysztof Kieslowski's later "Three Colors" trilogy of Blue, White, and Red will recognize his fascination with accidental happenings and chance encounters, as well as Irène Jacob (from Red) whose performance as both Veronika and Veronique won the 1991 Cannes Film Festival award for best actress. Veronika and Véronique are born on the same day in 1966, one in Poland, the other in France. They grow up separately, unaware of each other's existence, but with the vague and rarely expressed feeling that they are "not alone." The story begins in Poland, where Veronika (like Véronique) is a talented vocalist and music student who wins a prestigious singing competition and is given the chance to perform with a local symphony. On the night of the concert, while singing a duet onstage, Veronika loses consciousness and dies. Véronique is emotionally wounded by the loss of her double and decides to end her singing career. The film charts the effect of Veronika's death on Véronique and on her dispassionate and unsatisfying relationships with men, especially her father. She is led to puppeteer and children's book author Alexandre Fabbri (Philippe Volter), whose puppet shows and stories are dramatic variants on her own mysterious problem. While looking through photographs of Véronique's trip to Poland, Fabbri discovers a picture of Veronika walking through a student demonstration in Kracow. He shows the picture to Véronique, who intuits the significance of Veronika's perfect likeness to herself. 

   General
      Complete name : La Double Vie de Veronique.mkv
      Format : Matroska
      File size : 1.63 GiB
      Duration : 1h 37mn
      Overall bit rate : 2 386 Kbps
      Encoded date : UTC 2009-12-03 22:42:04
      Writing application : mkvmerge v2.9.9 ('Tutu') built on Nov 25 2009 21:13:32
      Writing library : libebml v0.7.9 + libmatroska v0.8.1
   Video #1
      ID : 1
      Format : AVC
      Format/Info : Advanced Video Codec
      Format profile : High@L4.1
      Format settings, CABAC : Yes
      Format settings, ReFrames : 8 frames
      Muxing mode : Container profile=Unknown@4.1
      Codec ID : V_MPEG4/ISO/AVC
      Duration : 1h 37mn
      Bit rate : 1 954 Kbps
      Nominal bit rate : 2 000 Kbps
      Width : 656 pixels
      Height : 480 pixels
      Display aspect ratio : 1.667
      Frame rate : 23.976 fps
      Resolution : 24 bits
      Colorimetry : 4:2:0
      Scan type : Progressive
      Bits/(Pixel*Frame) : 0.259
      Stream size : 1.33 GiB (82%)
      Writing library : x264 core 79 r1352 d487de4
   Audio #2
      ID : 2
      Format : AC-3
      Format/Info : Audio Coding 3
      Format profile : Dolby Digital
      Codec ID : A_AC3
      Duration : 1h 37mn
      Bit rate mode : Constant
      Bit rate : 192 Kbps
      Channel(s) : 2 channels
      Channel positions : L R
      Sampling rate : 48.0 KHz
      Stream size : 134 MiB (8%)
      Language : Polish
   Audio #3
      ID : 3
      Format : AC-3
      Format/Info : Audio Coding 3
      Format profile : Dolby Digital
      Codec ID : A_AC3
      Duration : 1h 37mn
      Bit rate mode : Constant
      Bit rate : 192 Kbps
      Channel(s) : 2 channels
      Channel positions : L R
      Sampling rate : 48.0 KHz
      Stream size : 134 MiB (8%)
      Language : English
   Text #4
      ID : 4
      Format : UTF-8
      Codec ID : S_TEXT/UTF8
      Codec ID/Info : UTF-8 Plain Text
      Language : English

IMDB: tt0101765

Polish audio; English subtitle in the mkv container, separate portuguese srt subtitle

La double vie de Véronique (1991)